<?xml version="1.0" standalone="no"?>
<!DOCTYPE svg PUBLIC "-//W3C//DTD SVG 20010904//EN"
 "http://www.w3.org/TR/2001/REC-SVG-20010904/DTD/svg10.dtd">
<svg version="1.0" xmlns="http://www.w3.org/2000/svg"
 width="512.000000pt" height="512.000000pt" viewBox="0 0 512.000000 512.000000"
 preserveAspectRatio="xMidYMid meet">
<metadata>
Created by potrace 1.11, written by Peter Selinger 2001-2013
</metadata>
<g transform="translate(0.000000,512.000000) scale(0.100000,-0.100000)"
fill="#000000" stroke="none">
<path d="M2308 5115 c-2 -2 -41 -6 -88 -9 -47 -3 -96 -8 -110 -10 -14 -2 -46
-7 -71 -10 -287 -40 -556 -142 -749 -285 -213 -159 -351 -388 -405 -676 -26
-138 -26 -441 0 -585 3 -14 7 -41 10 -60 11 -72 57 -234 99 -353 42 -117 149
-415 242 -677 127 -353 256 -579 432 -760 100 -101 185 -166 292 -220 111 -56
263 -102 383 -116 43 -5 57 -11 57 -23 1 -9 1 -136 1 -284 0 -207 -3 -270 -13
-281 -7 -7 -24 -28 -38 -46 -14 -18 -70 -91 -125 -161 -193 -245 -275 -354
-273 -364 1 -5 55 -52 121 -102 l118 -93 135 173 c74 94 156 200 183 235 l49
63 35 -43 c18 -24 92 -117 162 -208 70 -91 138 -178 151 -193 l24 -28 112 87
c62 48 119 92 126 99 10 9 -37 74 -218 306 l-230 294 3 280 2 280 75 11 c424
63 731 312 948 766 76 159 75 157 212 536 71 196 144 401 164 455 54 146 98
322 121 477 3 19 7 118 9 220 4 151 1 205 -15 295 -44 251 -139 443 -301 603
-198 198 -517 336 -883 382 -49 6 -101 14 -115 17 -25 5 -627 13 -632 8z"/>
</g>
</svg>
